<?xml version="1.0" standalone="no"?>
<!DOCTYPE svg PUBLIC "-//W3C//DTD SVG 20010904//EN"
 "http://www.w3.org/TR/2001/REC-SVG-20010904/DTD/svg10.dtd">
<svg version="1.0" xmlns="http://www.w3.org/2000/svg"
 width="1280.000000pt" height="886.000000pt" viewBox="0 0 1280.000000 886.000000"
 preserveAspectRatio="xMidYMid meet">
<metadata>
Created by potrace 1.15, written by Peter Selinger 2001-2017
</metadata>
<g transform="translate(0.000000,886.000000) scale(0.100000,-0.100000)"
fill="#000000" stroke="none">
<path d="M6385 8603 l-150 -258 -300 -5 -299 -5 -150 -257 -150 -258 -292 0
-292 0 -150 -257 -149 -258 -84 -3 c-46 -2 -174 -1 -285 3 l-201 7 -144 252
-145 251 -299 5 -299 5 -146 255 -146 255 -309 0 -310 0 -150 -257 -150 -258
-296 0 -297 0 -151 -259 c-83 -143 -151 -265 -151 -272 0 -6 68 -130 151 -275
l150 -264 297 0 297 0 143 -249 c78 -136 142 -253 142 -259 0 -6 -66 -123
-146 -261 l-146 -250 -286 5 -287 6 -150 -261 -150 -260 -298 -3 -299 -3 -154
-264 -154 -264 153 -266 152 -266 300 -5 299 -5 142 -248 141 -248 -140 -239
-140 -240 -301 0 -301 -1 -152 -263 c-84 -145 -153 -265 -153 -268 0 -3 66
-119 146 -259 81 -140 147 -259 147 -265 0 -6 -66 -124 -146 -263 -81 -138
-147 -254 -147 -257 0 -3 68 -124 152 -269 l152 -265 290 0 291 -1 153 -269
153 -270 311 2 311 3 150 258 150 257 284 -2 285 -3 146 -257 147 -257 310 -1
310 0 149 255 c81 140 152 258 157 261 5 3 134 2 286 -2 l278 -7 145 -253 145
-254 297 0 297 0 148 -260 148 -260 309 2 309 3 150 258 149 257 297 0 297 0
150 258 150 257 281 3 281 2 149 -260 148 -260 297 0 296 0 149 -260 148 -260
310 3 310 2 150 258 150 257 296 0 297 0 152 260 c83 144 150 267 148 275 -2
8 -68 128 -148 268 l-145 254 -140 6 c-77 4 -213 7 -301 7 l-162 0 -143 252
c-79 139 -144 258 -144 265 0 6 63 120 140 252 l140 241 299 2 298 3 149 255
148 255 297 5 297 5 149 255 149 255 296 0 296 0 149 255 c82 140 152 260 154
266 3 7 -63 132 -147 278 l-152 266 -296 0 -297 0 -149 260 -148 260 -311 -2
-311 -3 -150 -257 -150 -258 -91 0 c-50 0 -179 3 -287 7 l-196 6 -148 259
-147 258 -297 0 -296 0 -142 246 -142 247 56 96 c30 53 94 164 142 246 l88
150 310 3 310 2 16 28 c8 15 77 134 153 264 l138 237 -151 264 -151 264 -196
6 c-109 4 -248 7 -310 7 l-112 0 -148 -255 -149 -255 -298 2 -298 3 -146 253
-145 252 147 253 c81 138 148 257 147 262 0 6 -67 127 -150 270 l-150 260
-298 3 -299 3 -146 257 -146 257 -309 3 -309 2 -150 -257z"/>
</g>
</svg>
