<?xml version="1.0" standalone="no"?>
<!DOCTYPE svg PUBLIC "-//W3C//DTD SVG 20010904//EN"
 "http://www.w3.org/TR/2001/REC-SVG-20010904/DTD/svg10.dtd">
<svg version="1.0" xmlns="http://www.w3.org/2000/svg"
 width="1280.000000pt" height="1218.000000pt" viewBox="0 0 1280.000000 1218.000000"
 preserveAspectRatio="xMidYMid meet">
<metadata>
Created by potrace 1.15, written by Peter Selinger 2001-2017
</metadata>
<g transform="translate(0.000000,1218.000000) scale(0.100000,-0.100000)"
fill="#000000" stroke="none">
<path d="M11985 9438 c-606 -303 -736 -372 -723 -382 8 -6 108 -56 221 -111
113 -55 206 -102 206 -105 1 -3 -59 -35 -131 -71 l-133 -66 -132 66 -133 66 0
452 0 453 -1020 -510 -1020 -510 -50 25 c-27 14 -52 25 -55 25 -3 0 -5 -24 -5
-53 l0 -52 -252 -126 -253 -126 255 -129 c140 -71 254 -132 253 -136 -2 -5 -3
-88 -3 -186 l0 -178 -192 -94 c-106 -51 -391 -192 -632 -313 l-440 -220 -197
99 c-109 54 -196 101 -193 105 2 4 -4 5 -15 2 -11 -3 -111 42 -250 111 l-231
116 0 -237 c0 -131 0 -365 0 -520 0 -198 -3 -283 -10 -283 -6 0 -8 5 -4 12 4
6 3 8 -4 4 -6 -3 -130 53 -276 126 -200 100 -262 135 -255 145 8 9 4 9 -20 0
l-31 -11 0 -228 0 -228 -229 115 c-126 63 -234 115 -240 115 -6 0 -313 151
-681 335 l-670 335 0 -490 0 -490 -768 -384 -767 -384 -258 129 -257 129 0
-259 c0 -237 -1 -259 -17 -266 -17 -6 -17 -7 0 -16 14 -8 17 -25 17 -99 0
-110 -1 -110 -130 -45 l-90 45 0 180 c0 112 -4 180 -10 180 -5 0 -89 -39 -185
-87 l-175 -88 -373 186 -372 186 0 -371 0 -371 -527 -265 -528 -265 0 -600 0
-600 151 -77 150 -77 -150 -76 -151 -75 0 -268 0 -267 485 -243 c267 -133 488
-242 491 -242 4 0 3 187 -1 415 -4 228 -5 415 -1 415 3 0 193 -93 421 -207
l415 -208 0 -153 0 -152 -55 -27 -56 -28 -354 178 c-195 97 -355 175 -355 172
0 -3 155 -83 344 -177 l345 -173 -791 -399 -791 -399 -44 22 c-24 11 -46 21
-48 21 -3 0 -5 -270 -5 -600 l0 -600 3419 0 3420 0 229 114 c127 63 232 112
235 110 3 -3 109 47 236 110 l231 116 95 -48 95 -47 -320 -160 c-176 -88 -320
-162 -320 -166 0 -26 73 -29 650 -29 593 0 600 0 600 20 0 11 5 20 11 20 5 0
7 -5 3 -12 -4 -7 -3 -8 4 -4 6 4 25 0 41 -9 25 -12 73 -15 266 -15 l235 0 0
265 c0 146 3 265 8 264 4 0 63 -28 131 -63 l125 -63 -112 -57 c-62 -32 -112
-61 -112 -64 0 -4 124 -69 275 -145 l275 -137 1540 0 1540 0 0 485 0 485 -152
76 -153 76 139 70 c76 38 145 67 152 64 12 -5 14 628 14 4263 l0 4268 -25 11
c-14 7 -31 12 -38 11 -7 0 -345 -167 -752 -371z m-2615 -1462 c0 -2 -7 -7 -16
-10 -8 -3 -12 -2 -9 4 6 10 25 14 25 6z m-3110 -1802 c0 -30 -3 -53 -7 -51 -8
5 -5 107 3 107 2 0 4 -25 4 -56z m1239 -1205 c-129 -65 -237 -118 -241 -118
-5 -1 -8 3 -8 9 0 15 452 238 469 232 8 -3 -90 -58 -220 -123z m-460 -218 c11
-7 7 -13 -18 -25 -17 -9 -31 -19 -31 -21 0 -3 48 -29 106 -58 l107 -54 0 -89
1 -89 3 83 c2 45 6 82 8 82 3 0 110 -52 237 -116 l233 -116 -95 -48 -94 -47
-315 155 c-174 85 -342 166 -373 181 -32 14 -57 28 -58 31 0 5 259 138 270
139 3 1 11 -3 19 -8z m-4659 -956 c0 -166 -3 -245 -11 -245 -5 0 -7 5 -3 12 4
7 3 8 -4 4 -6 -4 -52 14 -102 39 l-90 45 0 145 0 145 98 49 c53 28 100 50 105
50 4 1 7 -109 7 -244z m6990 -620 c0 -23 -2 -24 -20 -15 -23 12 -26 26 -7 33
23 10 27 7 27 -18z m-2040 -69 l105 -54 -58 -28 -57 -28 -110 54 c-61 30 -110
57 -110 60 0 10 84 49 105 49 11 0 67 -24 125 -53z m-340 -1151 c171 -85 310
-158 310 -163 0 -4 -196 -105 -435 -225 l-435 -217 0 30 c0 17 -2 30 -5 30 -3
0 -187 -91 -410 -202 l-405 -203 -230 115 c-126 63 -226 117 -222 121 4 3 264
136 577 294 314 158 572 289 574 291 2 2 -17 13 -43 26 -25 12 -46 25 -46 28
0 5 439 228 453 229 4 1 147 -69 317 -154z m-3810 -415 c0 -3 -119 -65 -264
-138 -241 -120 -267 -131 -290 -120 -14 6 -26 14 -26 17 0 3 118 65 262 137
238 119 264 130 290 120 15 -6 28 -13 28 -16z m-650 -305 c0 -20 -11 -31 -62
-57 -35 -18 -66 -34 -70 -36 -5 -2 -8 10 -8 27 0 27 6 34 58 60 70 37 82 38
82 6z m6773 -86 l62 -32 -115 -58 c-63 -32 -118 -58 -122 -58 -5 -1 -8 27 -8
62 l0 63 53 26 c28 15 56 27 60 27 4 1 35 -13 70 -30z m-2003 -584 l0 -115
-435 217 -435 218 0 115 0 115 435 -217 435 -218 0 -115z m-4835 313 c64 -32
65 -33 65 -73 0 -40 -1 -41 -65 -73 -36 -18 -68 -32 -70 -32 -3 0 -5 47 -5
105 0 58 2 105 5 105 2 0 34 -14 70 -32z"/>
<path d="M8638 8013 c-2 -5 -1 -96 2 -203 l6 -195 2 203 c2 182 0 218 -10 195z"/>
<path d="M1490 6533 c0 -409 2 -743 5 -743 10 0 1475 735 1475 740 0 3 -333
172 -740 375 l-740 370 0 -742z"/>
<path d="M5880 6630 c-30 -16 -51 -29 -47 -30 10 0 107 49 107 55 0 7 1 7 -60
-25z"/>
<path d="M12766 1223 l-30 -16 28 -14 c33 -17 39 -14 34 20 -3 25 -4 25 -32
10z"/>
</g>
</svg>
